<svg xmlns="http://www.w3.org/2000/svg" width="224" height="263" viewBox="0 0 224 263" version="1.1"><path d="M 101.217 24.996 C 81.687 29.149, 67.313 45.691, 66.114 65.394 L 65.500 75.500 52.500 76 C 27.894 76.946, 28.858 74.923, 22.503 139 C 20.981 154.343, 18.245 179.633, 15.447 204.208 C 12.539 229.746, 16.745 241.025, 31.883 248.285 L 36.500 250.500 112 250.500 L 187.500 250.500 192.714 248.142 C 206.890 241.732, 212.708 228.488, 209.987 208.822 C 209.430 204.795, 208.125 193.625, 207.087 184 C 194.659 68.736, 197.074 76, 171.182 76 L 159.299 76 158.646 66.790 C 156.640 38.538, 129.710 18.939, 101.217 24.996 M 105.791 36.060 C 89.669 38.483, 77.623 52.102, 77.539 68 L 77.500 75.500 112.250 75.763 L 147 76.026 146.999 68.763 C 146.997 47.756, 128.045 32.716, 105.791 36.060 M 52.877 86.781 C 37.844 87.144, 38.247 86.719, 36.366 104.190 C 32.322 141.767, 29.809 165.396, 26.845 193.725 L 23.577 224.950 25.759 229.442 C 27.118 232.238, 29.529 234.983, 32.147 236.716 L 36.353 239.500 109.749 239.769 C 215.017 240.155, 205.219 251.671, 192.506 142.500 C 191.161 130.950, 189.284 114.550, 188.336 106.056 C 186.118 86.187, 186.868 87.001, 170.750 86.998 L 158.500 86.995 158.772 95.248 C 159.102 105.250, 157.851 108.363, 153.323 108.806 C 148.421 109.286, 147 106.358, 147 95.777 L 147 87 112 87 L 77 87 77 96.345 C 77 106.596, 75.836 109, 70.871 109 C 66.676 109, 66 107.316, 66 96.859 C 66 91.501, 65.662 86.979, 65.250 86.809 C 64.838 86.639, 59.270 86.626, 52.877 86.781 M 61.200 136.200 C 55.240 142.160, 60.636 202.398, 66.818 198.929 L 69.500 197.424 69.765 167.583 C 69.953 146.399, 69.700 137.344, 68.893 136.371 C 67.490 134.680, 62.823 134.577, 61.200 136.200 M 81.200 136.200 C 80.320 137.080, 80 145.350, 80 167.177 L 80 196.954 82.500 198.592 C 85.217 200.372, 89.997 198.547, 90.003 195.727 C 90.004 195.052, 90.053 181.506, 90.110 165.625 C 90.195 142.309, 89.954 136.585, 88.857 135.891 C 86.880 134.638, 82.589 134.811, 81.200 136.200 M 97.975 137.565 C 96.624 141.120, 96.706 191.859, 98.070 195.771 C 99.404 199.596, 101.585 200.502, 104.641 198.500 L 107 196.954 107 167.177 C 107 135.150, 106.976 135, 101.775 135 C 99.663 135, 98.704 135.647, 97.975 137.565 M 114.872 136.651 C 113.170 138.700, 112.468 162.851, 113.504 183.771 C 114.295 199.760, 115.350 201.967, 120.567 198.548 L 123 196.954 123 167.177 C 123 145.350, 122.680 137.080, 121.800 136.200 C 120.084 134.484, 116.478 134.719, 114.872 136.651 M 133.035 136.934 C 132.390 138.140, 132 149.804, 132 167.911 L 132 196.954 134.500 198.592 C 136.816 200.109, 137.184 200.109, 139.500 198.592 L 142 196.954 142 166.584 C 142 139.813, 141.813 136.142, 140.418 135.607 C 137.341 134.426, 134.062 135.016, 133.035 136.934 M 153.035 136.934 C 151.384 140.020, 151.651 195.140, 153.328 197.434 C 154.824 199.480, 159.542 199.858, 161.325 198.075 C 163.277 196.123, 162.968 137.223, 161 135.979 C 158.411 134.342, 154.149 134.854, 153.035 136.934" stroke="none" fill="#0c3766" fill-rule="evenodd"/><path d="M 0 131.504 L 0 263.009 112.250 262.754 L 224.500 262.500 224.754 131.250 L 225.007 -0 112.504 -0 L 0 0 0 131.504 M 0.485 132 C 0.485 204.325, 0.604 233.913, 0.750 197.750 C 0.895 161.588, 0.895 102.413, 0.750 66.250 C 0.604 30.088, 0.485 59.675, 0.485 132 M 101.217 24.996 C 81.687 29.149, 67.313 45.691, 66.114 65.394 L 65.500 75.500 52.500 76 C 27.894 76.946, 28.858 74.923, 22.503 139 C 20.981 154.343, 18.245 179.633, 15.447 204.208 C 12.539 229.746, 16.745 241.025, 31.883 248.285 L 36.500 250.500 112 250.500 L 187.500 250.500 192.714 248.142 C 206.890 241.732, 212.708 228.488, 209.987 208.822 C 209.430 204.795, 208.125 193.625, 207.087 184 C 194.659 68.736, 197.074 76, 171.182 76 L 159.299 76 158.646 66.790 C 156.640 38.538, 129.710 18.939, 101.217 24.996 M 105.791 36.060 C 89.669 38.483, 77.623 52.102, 77.539 68 L 77.500 75.500 112.250 75.763 L 147 76.026 146.999 68.763 C 146.997 47.756, 128.045 32.716, 105.791 36.060 M 52.877 86.781 C 37.844 87.144, 38.247 86.719, 36.366 104.190 C 32.322 141.767, 29.809 165.396, 26.845 193.725 L 23.577 224.950 25.759 229.442 C 27.118 232.238, 29.529 234.983, 32.147 236.716 L 36.353 239.500 109.749 239.769 C 215.017 240.155, 205.219 251.671, 192.506 142.500 C 191.161 130.950, 189.284 114.550, 188.336 106.056 C 186.118 86.187, 186.868 87.001, 170.750 86.998 L 158.500 86.995 158.772 95.248 C 159.102 105.250, 157.851 108.363, 153.323 108.806 C 148.421 109.286, 147 106.358, 147 95.777 L 147 87 112 87 L 77 87 77 96.345 C 77 106.596, 75.836 109, 70.871 109 C 66.676 109, 66 107.316, 66 96.859 C 66 91.501, 65.662 86.979, 65.250 86.809 C 64.838 86.639, 59.270 86.626, 52.877 86.781 M 61.200 136.200 C 55.240 142.160, 60.636 202.398, 66.818 198.929 L 69.500 197.424 69.765 167.583 C 69.953 146.399, 69.700 137.344, 68.893 136.371 C 67.490 134.680, 62.823 134.577, 61.200 136.200 M 81.200 136.200 C 80.320 137.080, 80 145.350, 80 167.177 L 80 196.954 82.500 198.592 C 85.217 200.372, 89.997 198.547, 90.003 195.727 C 90.004 195.052, 90.053 181.506, 90.110 165.625 C 90.195 142.309, 89.954 136.585, 88.857 135.891 C 86.880 134.638, 82.589 134.811, 81.200 136.200 M 97.975 137.565 C 96.624 141.120, 96.706 191.859, 98.070 195.771 C 99.404 199.596, 101.585 200.502, 104.641 198.500 L 107 196.954 107 167.177 C 107 135.150, 106.976 135, 101.775 135 C 99.663 135, 98.704 135.647, 97.975 137.565 M 114.872 136.651 C 113.170 138.700, 112.468 162.851, 113.504 183.771 C 114.295 199.760, 115.350 201.967, 120.567 198.548 L 123 196.954 123 167.177 C 123 145.350, 122.680 137.080, 121.800 136.200 C 120.084 134.484, 116.478 134.719, 114.872 136.651 M 133.035 136.934 C 132.390 138.140, 132 149.804, 132 167.911 L 132 196.954 134.500 198.592 C 136.816 200.109, 137.184 200.109, 139.500 198.592 L 142 196.954 142 166.584 C 142 139.813, 141.813 136.142, 140.418 135.607 C 137.341 134.426, 134.062 135.016, 133.035 136.934 M 153.035 136.934 C 151.384 140.020, 151.651 195.140, 153.328 197.434 C 154.824 199.480, 159.542 199.858, 161.325 198.075 C 163.277 196.123, 162.968 137.223, 161 135.979 C 158.411 134.342, 154.149 134.854, 153.035 136.934" stroke="none" fill="#589bdb" fill-rule="evenodd"/></svg>